# xmcd CD database file
#
# Track frame offsets:
#	150
#	14050
#	27650
#	40975
#	57100
#	71710
#	84325
#	95850
#	106850
#	118100
#	131575
#	141475
#	156025
#	168695
#	181730
#	195600
#	207500
#	224525
#	240800
#	256125
#
# Disc length: 3556 seconds
#
# Revision: 0
# Processed by: cddbd v1.5.2PL0 Copyright (c) Steve Scherf et al.
# Submitted via: ACXtractor (MTCDDB.DLL V2003.12.21)
#
DISCID=280de214
DTITLE=Anne Murray and Glen Campbell - Country Duets
DYEAR=1978
DGENRE=Country
TTITLE0=Every Time Two Fools Collide
TTITLE1=You And Me
TTITLE2=What's Wrong With Us Today
TTITLE3=Beautiful Lies
TTITLE4=That's The Way It Could Have Been
TTITLE5=Why Don't We Go Somewhere
TTITLE6=Baby I'm A Want You
TTITLE7=Anyone Who Isn't Me Tonight
TTITLE8=The Loving Gift
TTITLE9=We Love Each Other
TTITLE10=You,re Easy to Love
TTITLE11=Medley
TTITLE12=We All Pull The Load
TTITLE13=Canadian Sunset
TTITLE14=Bring Back The Love
TTITLE15=United We Stand
TTITLE16=Love Story (You and Me)
TTITLE17=Ease Your Pain
TTITLE18=Let Me Be The One
TTITLE19=My Ecstasy
EXTD=ID3G:   2 YEAR: 1978
EXTT0=
EXTT1=
EXTT2=
EXTT3=
EXTT4=
EXTT5=
EXTT6=
EXTT7=
EXTT8=
EXTT9=
EXTT10=
EXTT11=
EXTT12=
EXTT13=
EXTT14=
EXTT15=
EXTT16=
EXTT17=
EXTT18=
EXTT19=
PLAYORDER=
